<svg width="58" height="24" viewBox="0 0 58 24" fill="none" xmlns="http://www.w3.org/2000/svg">
<path d="M15.288 19.816C14.928 20.272 14.208 20.8 13.584 20.872C13.344 20.896 13.104 20.824 12.864 20.752C12.768 20.704 11.88 20.296 11.88 20.344L12 20.488C11.568 20.2 11.064 19.648 10.656 19.24C10.056 18.64 9.432 18.088 8.808 17.512C8.616 17.272 6.888 15.208 6.12 14.2C6.36 14.608 6.744 15.136 6.936 15.424C6.288 14.632 5.76 13.792 5.232 12.928C6.504 12.304 7.752 11.44 8.784 10.504C9.144 10.168 9.408 9.784 9.792 9.472C10.344 8.992 10.848 8.44 11.4 7.96C11.664 7.72 12 7.456 12.216 7.168C12.432 6.88 12.528 6.616 12.792 6.352C13.32 5.8 13.752 5.248 14.232 4.696C14.904 3.904 15.432 3.136 15.264 2.104V2.056C15.168 1.6 14.76 0.639999 14.256 0.519999C13.896 0.447999 13.968 0.735999 13.896 0.975999C13.488 2.392 12.288 3.736 11.376 4.888C10.392 6.088 9.264 7.048 8.232 8.176C7.2 9.232 6.12 10.144 4.944 11.056C5.136 10.312 5.568 9.616 5.712 8.872C5.76 8.464 5.832 8.128 6 7.744L6.432 6.664C6.672 5.968 6.912 5.296 7.176 4.624C7.344 4.144 7.608 3.64 7.752 3.136C7.824 2.848 7.776 2.68 7.872 2.44C8.16 1.768 8.88 1.24 8.04 0.663999C7.632 0.352 6.72 0.0879989 6.408 0.639999C6.408 0.663999 6.432 0.711999 6.456 0.735999L6.288 1.144C6.12 1.48 5.976 1.816 5.88 2.128C5.208 3.736 4.68 5.368 4.128 6.976C3.552 8.8 2.88 10.6 2.352 12.424C2.184 13.144 2.088 13.84 1.824 14.536C1.512 15.424 1.248 16.312 1.032 17.224C0.768 18.256 0.312 19.384 1.032 20.344C1.272 20.704 2.04 21.616 2.376 20.992C2.544 20.704 2.52 20.2 2.592 19.888L2.88 18.64C3.12 17.632 3.36 16.624 3.672 15.592C3.912 14.896 3.936 14.2 4.152 13.504L4.584 14.344C4.68 14.392 4.752 14.464 4.776 14.56C4.704 14.584 4.68 14.656 4.704 14.728C4.824 15.184 5.16 15.616 5.4 16C5.544 16.216 6.96 18.472 7.008 18.4V18.352L7.32 18.736C7.272 18.784 7.2 18.64 7.176 18.664C7.008 18.832 8.136 20.152 8.256 20.248C8.544 20.512 8.808 20.776 9.072 21.088C9.192 21.256 9.336 21.424 9.528 21.568C9.576 21.592 9.888 21.784 9.816 21.712C9.84 21.712 9.888 21.736 9.936 21.784C9.888 21.76 9.864 21.76 9.84 21.76C9.84 21.856 11.112 22.792 11.208 22.864C11.64 23.104 12.12 23.224 12.648 23.128C13.992 22.888 14.952 21.616 15.624 20.56C15.768 20.32 15.84 20.128 15.816 19.84C15.72 19.192 15.504 19.552 15.288 19.816ZM3.24 11.896C3.216 11.92 3.216 11.944 3.216 11.968C2.976 12.952 2.784 13.96 2.496 14.968C2.256 15.736 1.944 16.48 1.728 17.224C2.184 15.28 2.808 13.312 3.36 11.368L3.24 11.896ZM7.728 16.384L8.136 16.888C7.944 16.672 7.728 16.456 7.56 16.216L7.728 16.384ZM5.856 13.888L5.736 13.672C5.736 13.696 5.784 13.768 5.856 13.888ZM5.976 14.056L5.88 13.936L5.976 14.056ZM25.9738 13.216C25.9498 12.688 25.5178 13.144 25.3738 13.336C25.0618 13.792 24.7738 14.272 24.4858 14.728C23.8378 15.712 23.1898 16.696 22.4458 17.632C19.9738 20.68 21.7018 15.256 21.5098 15.304C21.4138 15.328 21.3418 15.688 21.3178 15.76C21.5098 14.896 21.8698 13.864 22.3258 13.024C22.5898 12.496 22.9018 12.064 22.4218 11.488C21.5338 10.408 20.5018 11.392 19.9258 12.136C19.6858 11.224 19.2058 9.88 18.0298 9.88C17.5018 9.88 17.1898 10.144 16.8298 10.456C16.6138 10.6 16.4458 10.624 16.2538 10.792C15.9418 11.008 15.7258 11.344 15.5098 11.632C14.6938 12.832 14.1178 14.344 13.8538 15.736C13.7338 16.408 13.6858 17.152 13.8778 17.824C13.9978 18.208 14.4298 19.072 14.9818 19C15.0058 19 14.9578 18.976 14.8858 18.928C15.2218 19.024 15.6058 18.976 15.8938 18.784C15.9178 18.832 15.6298 18.952 15.6298 18.952C15.8938 19.36 17.8618 16.984 18.0058 16.768C18.3178 16.336 18.5338 15.88 18.8218 15.424C19.0378 15.088 19.3738 14.656 19.6138 14.296C19.5898 14.464 19.5898 14.68 19.5898 14.68C19.1578 16.048 18.7498 17.536 19.3258 18.952C19.5898 19.672 20.2378 20.344 21.0538 20.2C21.7738 20.08 22.3738 19.384 22.8058 18.832C23.3338 18.208 23.7898 17.512 24.2458 16.792C24.6298 16.144 24.9898 15.496 25.3018 14.776C25.4938 14.32 26.0218 13.768 25.9738 13.216ZM19.0858 13.384C18.9658 13.552 18.8458 13.72 18.7498 13.888L18.1258 14.776C17.7178 15.376 17.2858 15.952 16.8298 16.504C16.7098 16.672 16.1338 17.416 15.8938 17.344C15.5338 17.224 15.9178 15.976 15.9658 15.784C16.0378 15.448 17.3098 11.752 17.6458 11.68C17.2138 11.656 15.8218 16 15.7498 16.36C15.9418 15.184 16.3738 14.032 16.8538 12.952C17.1178 12.4 17.7178 10.936 18.5098 10.936C18.9418 10.936 19.0378 11.824 19.1098 12.112C19.0858 12.064 18.8698 11.368 18.8458 11.392C18.7258 11.488 19.2058 12.808 19.2058 13C19.2058 13.192 19.2058 13.192 19.0858 13.384ZM19.6378 14.56C19.6378 14.56 19.7098 14.224 19.7338 14.152L19.8538 13.984L19.6378 14.56ZM19.2778 13.072V12.832C19.3498 12.928 19.3498 13 19.2778 13.072ZM34.0509 13.168C33.9069 12.544 33.3309 13.384 33.2109 13.528L31.8909 15.304L30.5949 17.008L29.8989 17.896C29.8269 17.992 29.2989 18.664 29.3469 18.664C29.3949 18.616 29.4669 18.616 29.5389 18.544C29.1789 18.928 27.8589 20.128 27.6189 19.84C27.4269 19.6 27.9549 18.592 28.0269 18.352C28.2909 17.656 28.5309 16.936 28.8189 16.264C29.1309 15.568 29.4909 14.872 29.7789 14.176C30.0669 13.432 29.6349 13.168 28.9389 13C28.6269 12.928 28.2429 12.928 27.8829 12.88C27.8829 12.904 27.9069 12.904 27.9069 12.904C28.2189 12.952 28.6749 12.976 29.0589 13.096C28.4829 12.928 27.7629 13 27.3069 12.88C26.9949 12.808 26.8029 12.808 26.8509 12.448C26.8989 11.968 27.4029 11.464 27.5709 11.008C27.5709 11.032 27.4029 11.464 27.4269 11.464C27.5469 11.512 27.7389 10.84 27.7389 10.744C27.7149 10.624 27.4269 10.264 27.4029 10.408L27.4509 10.48C26.2989 9.688 24.9309 11.32 25.1709 12.496C25.2189 12.664 25.3149 12.76 25.3869 12.952C25.4349 13.096 25.3869 13.264 25.5309 13.456C26.0349 14.08 26.9469 14.104 27.6669 13.96C27.5469 14.128 26.2749 16.816 26.3469 16.84L26.1789 17.44C26.1549 17.416 26.2509 17.224 26.2029 17.224C26.0349 17.2 25.6989 18.592 25.6749 18.712C25.5789 19.288 25.6029 19.792 25.8429 20.32C25.9869 20.656 26.1549 20.944 26.4669 21.136C26.7549 21.328 27.1149 21.424 27.4509 21.352C27.5709 21.304 28.0269 20.992 27.9069 21.016L28.0749 20.944C28.0509 20.968 28.0269 20.992 28.0269 21.016C28.0989 21.04 29.2029 20.152 29.3469 20.056C30.1149 19.408 30.7389 18.616 31.3149 17.824C31.8909 17.008 32.4909 16.192 33.0429 15.376C33.3069 14.992 33.5469 14.608 33.7389 14.2C33.8829 13.912 34.1229 13.504 34.0509 13.168ZM26.8749 16.048C27.0429 15.616 27.2349 15.208 27.4509 14.8C27.4989 14.728 27.8349 13.864 28.0029 13.816C27.8829 13.888 27.3789 15.064 27.2589 15.28L26.8029 16.336C26.5629 16.912 26.2989 17.512 26.1309 18.136C26.2989 17.416 26.5869 16.72 26.8749 16.048ZM26.2989 20.656C26.4429 20.848 26.6349 21.04 26.8989 21.136C26.6829 21.064 26.4909 20.944 26.3469 20.8C26.3709 20.8 26.3709 20.824 26.3709 20.848C26.2269 20.656 26.0349 20.248 26.0109 20.176C25.9389 19.888 25.9149 19.552 25.9389 19.264C25.9389 19.024 25.9629 18.832 26.0109 18.616V18.64C25.9629 18.952 25.9389 19.264 25.9629 19.6V19.72C25.9389 19.696 25.9389 19.672 25.9389 19.672C25.9389 19.672 25.9389 19.696 25.9629 19.744V19.768L26.0589 20.272L25.9869 19.96C26.0349 20.104 26.1549 20.368 26.2749 20.632L26.2509 20.608C26.2509 20.632 26.2749 20.656 26.2989 20.68V20.656ZM26.9709 12.736C27.0909 12.832 27.3069 12.856 27.5229 12.88C27.3309 12.856 27.1629 12.808 27.0429 12.712C27.0429 12.712 26.8989 12.592 26.8749 12.544C26.8749 12.592 26.9229 12.712 26.9709 12.736ZM29.4909 14.608L28.9869 15.664L29.4909 14.584V14.608ZM26.0349 18.544C26.0349 18.568 26.0109 18.592 26.0109 18.616V18.592C26.0109 18.568 26.0349 18.568 26.0349 18.544ZM29.5149 14.536V14.56H29.4909L29.5149 14.536ZM29.5149 14.536V14.56H29.4909L29.5149 14.536ZM26.0589 18.232C26.0589 18.208 26.0829 18.184 26.0829 18.136C26.0829 18.184 26.0589 18.208 26.0589 18.232ZM26.1549 20.44C26.1549 20.44 26.1789 20.464 26.1789 20.488C26.1789 20.464 26.1549 20.464 26.1549 20.44ZM26.8989 12.496C26.8749 12.496 26.8749 12.52 26.8749 12.52L26.8989 12.496ZM46.8889 13.24C46.8889 13.24 46.9129 13.264 46.8889 13.216C46.7209 12.688 45.6649 14.128 45.5449 14.272C44.9209 15.016 44.2969 15.784 43.6489 16.504C43.3849 16.792 42.4489 18.088 41.9929 17.992C41.7769 17.944 41.9449 16.792 41.9449 16.792C41.8969 16.84 41.8729 16.888 41.8489 16.936C42.0409 16.024 42.5929 14.944 42.9769 14.032C43.3849 13 43.9849 11.656 43.6729 10.504C43.3129 9.184 41.9449 9.856 41.2969 10.48C41.0569 10.72 39.0649 13.312 39.0889 13.48L39.5689 12.832C39.1849 13.432 38.8249 14.008 38.5369 14.608C38.7769 13.768 39.0169 12.904 39.3049 12.064C39.5209 11.488 39.8809 10.888 40.0489 10.288C40.2409 9.52 39.5689 8.464 38.7049 8.584C38.0809 8.656 37.5529 9.376 37.2409 9.88C36.8569 10.504 36.4009 11.08 36.0169 11.68C35.5609 12.424 35.1769 13.24 34.7929 14.008C34.4569 14.632 34.2889 15.352 33.9289 15.928C33.9769 15.664 33.8809 15.472 33.8809 15.232C33.8809 15.016 33.9769 14.752 34.0249 14.536C34.0969 14.2 34.2889 13.912 34.3609 13.576C34.4089 13.408 34.3609 13.336 34.4089 13.168C34.4329 13.048 34.5529 12.904 34.6249 12.808C34.7929 12.568 35.0089 12.352 35.1529 12.112C35.1769 12.064 35.2249 12.016 35.2249 11.968C35.3209 11.632 35.0809 11.512 34.9609 11.344C34.8409 11.2 34.7209 10.888 34.5289 10.72C34.3849 10.6 34.1449 10.456 33.9769 10.528C33.7609 10.624 33.8569 10.744 33.7849 10.864C33.6889 11.104 33.4969 11.296 33.3769 11.512C33.1849 11.92 33.0169 12.328 32.8969 12.736C32.6089 13.576 32.2729 14.44 32.3209 15.328C32.3449 16 32.1529 16.552 32.6569 17.152C32.8969 17.44 33.8329 18.064 34.0729 17.632C34.0969 17.584 34.1209 17.392 34.1209 17.32C34.1929 17.08 34.3609 16.864 34.4569 16.624C34.6969 16.144 34.9129 15.64 35.1769 15.136C35.8489 13.864 36.3529 12.64 37.1449 11.416C37.3849 11.056 37.6729 10.696 37.9609 10.36C38.0329 10.288 38.3929 9.784 38.4409 9.808C38.8249 9.832 38.0569 11.296 37.9849 11.56C37.6729 12.376 37.1209 13.216 37.0249 14.08C37.0009 14.368 37.0729 14.464 37.0009 14.728C36.9289 15.016 36.8089 15.328 36.8329 15.64C36.8809 15.928 37.0009 16.192 37.2169 16.384C37.9849 17.128 38.2969 16.264 38.6329 15.688C39.0409 15.016 39.4249 14.056 39.9289 13.552C40.7209 12.784 41.1289 11.752 41.9209 11.008C41.8009 11.272 41.1289 12.904 41.1529 12.928C41.2009 12.88 41.2249 12.832 41.2489 12.784C41.1529 13.048 41.0569 13.288 40.9849 13.528C40.9369 13.504 41.0329 13.312 41.0089 13.312C40.8649 13.288 40.4329 14.632 40.4089 14.728C40.2409 15.208 40.1689 15.664 40.1689 16.168C40.1689 16.624 40.1689 17.08 40.2409 17.56C40.2889 17.848 40.3609 18.16 40.5049 18.424C40.5529 18.544 40.8889 18.88 40.8889 18.832C40.9129 18.88 40.9129 18.928 40.9609 18.952L40.9369 18.928C40.8889 19.12 41.8969 19.456 42.0649 19.432C42.9049 19.408 43.7449 18.28 44.2009 17.68C44.8729 16.864 45.4729 15.976 46.0729 15.112C46.3849 14.656 47.0329 13.864 46.8889 13.24ZM38.2729 11.656H38.2969C38.2729 11.68 38.2489 11.728 38.2489 11.728C37.9609 12.328 37.8169 13.024 37.5769 13.672C37.3849 14.152 37.1449 14.728 37.0969 15.256C37.0969 14.704 37.2649 14.056 37.4329 13.576C37.6249 13 37.9129 12.448 38.1529 11.896C38.2489 11.704 38.8249 10.216 38.7289 9.832C38.8729 10.168 38.4409 11.296 38.2969 11.656V11.632L38.2729 11.656ZM57.3566 13.216C57.3326 12.688 56.9006 13.144 56.7566 13.336C56.4446 13.792 56.1566 14.272 55.8686 14.728C55.2206 15.712 54.5726 16.696 53.8286 17.632C51.3566 20.68 53.0846 15.256 52.8926 15.304C52.7966 15.328 52.7246 15.688 52.7006 15.76C52.8926 14.896 53.2526 13.864 53.7086 13.024C53.9726 12.496 54.2846 12.064 53.8046 11.488C52.9166 10.408 51.8846 11.392 51.3086 12.136C51.0686 11.224 50.5886 9.88 49.4126 9.88C48.8846 9.88 48.5726 10.144 48.2126 10.456C47.9966 10.6 47.8286 10.624 47.6366 10.792C47.3246 11.008 47.1086 11.344 46.8926 11.632C46.0766 12.832 45.5006 14.344 45.2366 15.736C45.1166 16.408 45.0686 17.152 45.2606 17.824C45.3806 18.208 45.8126 19.072 46.3646 19C46.3886 19 46.3406 18.976 46.2686 18.928C46.6046 19.024 46.9886 18.976 47.2766 18.784C47.3006 18.832 47.0126 18.952 47.0126 18.952C47.2766 19.36 49.2446 16.984 49.3886 16.768C49.7006 16.336 49.9166 15.88 50.2046 15.424C50.4206 15.088 50.7566 14.656 50.9966 14.296C50.9726 14.464 50.9726 14.68 50.9726 14.68C50.5406 16.048 50.1326 17.536 50.7086 18.952C50.9726 19.672 51.6206 20.344 52.4366 20.2C53.1566 20.08 53.7566 19.384 54.1886 18.832C54.7166 18.208 55.1726 17.512 55.6286 16.792C56.0126 16.144 56.3726 15.496 56.6846 14.776C56.8766 14.32 57.4046 13.768 57.3566 13.216ZM50.4686 13.384C50.3486 13.552 50.2286 13.72 50.1326 13.888L49.5086 14.776C49.1006 15.376 48.6686 15.952 48.2126 16.504C48.0926 16.672 47.5166 17.416 47.2766 17.344C46.9166 17.224 47.3006 15.976 47.3486 15.784C47.4206 15.448 48.6926 11.752 49.0286 11.68C48.5966 11.656 47.2046 16 47.1326 16.36C47.3246 15.184 47.7566 14.032 48.2366 12.952C48.5006 12.4 49.1006 10.936 49.8926 10.936C50.3246 10.936 50.4206 11.824 50.4926 12.112C50.4686 12.064 50.2526 11.368 50.2286 11.392C50.1086 11.488 50.5886 12.808 50.5886 13C50.5886 13.192 50.5886 13.192 50.4686 13.384ZM51.0206 14.56C51.0206 14.56 51.0926 14.224 51.1166 14.152L51.2366 13.984L51.0206 14.56ZM50.6606 13.072V12.832C50.7326 12.928 50.7326 13 50.6606 13.072Z" fill="currentColor"/>
</svg>
